<svg xmlns="http://www.w3.org/2000/svg" viewBox="0 0 128 128" style="enable-background:new 0 0 128 128" xml:space="preserve"><path style="fill:#94dfa5" d="M0 23.523v80.954h128V23.523H0zm37.584 38.731v2.894h-7.467v4.606h8.232l-.416 2.877H26.724V55.502H37.9v2.877h-7.783v3.875h7.467zm13.736 3.11v1.846h-8.664v-1.846h8.664zm-8.664-2.112v-1.846h8.664v1.846h-8.664zm26.724-5.355c-.782 3.559-2.528 9.878-4.008 14.734h-3.027c-1.098-4.074-2.894-11.275-3.592-14.784h-.15c.15 1.996.216 5.737.216 8.681v6.103h-3.193V55.502h5.222c1.231 3.991 2.76 9.978 3.226 12.572h.033c.366-2.212 2.345-8.515 3.625-12.572h5.022v17.129H69.38v-6.403c0-2.894.05-6.402.133-8.332h-.133zm13.703 12.206c2.295 0 2.977-1.597 3.293-2.877h3.459c-.482 2.91-2.428 5.654-6.802 5.654-5.405 0-7.367-3.925-7.367-8.83 0-4.823 2.478-8.781 7.483-8.781 4.623 0 6.403 2.96 6.585 5.604h-3.426c-.349-1.397-.915-2.794-3.259-2.794-2.844 0-3.792 2.877-3.792 5.97.001 3.26.899 6.054 3.826 6.054zM99.646 59.31h-6.768v-.1c0-1.912.798-3.193 3.176-5.006 1.164-.915 1.53-1.264 1.53-2.129 0-.831-.449-1.347-1.297-1.347-.981 0-1.364.665-1.447 1.68h-1.946c.083-1.663 1.014-3.193 3.442-3.21 2.212-.017 3.309 1.247 3.309 2.877 0 1.414-.599 2.179-2.312 3.409-1.214.865-1.813 1.547-2.012 2.162h4.573l-.248 1.664z"/><path style="fill:#324a60" d="M8.365 32.037v63.925h111.27V32.037H8.365zm29.568 40.594H26.724V55.502H37.9v2.877h-7.783v3.875h7.467v2.894h-7.467v4.606h8.232l-.416 2.877zM51.32 67.21h-8.664v-1.846h8.664v1.846zm0-3.958h-8.664v-1.846h8.664v1.846zm21.436 9.379H69.38v-6.403c0-2.894.05-6.402.133-8.332h-.133c-.782 3.559-2.528 9.878-4.008 14.734h-3.027c-1.098-4.074-2.894-11.275-3.592-14.784h-.15c.15 1.996.216 5.737.216 8.681v6.103h-3.193V55.502h5.222c1.231 3.991 2.76 9.978 3.226 12.572h.033c.366-2.212 2.345-8.515 3.625-12.572h5.022v17.129zm10.277.249c-5.405 0-7.367-3.925-7.367-8.83 0-4.823 2.478-8.781 7.483-8.781 4.623 0 6.403 2.96 6.585 5.604h-3.426c-.349-1.397-.915-2.794-3.259-2.794-2.844 0-3.792 2.877-3.792 5.97 0 3.259.898 6.053 3.825 6.053 2.295 0 2.977-1.597 3.293-2.877h3.459c-.482 2.911-2.428 5.655-6.801 5.655zm16.613-13.57h-6.768v-.1c0-1.912.798-3.193 3.176-5.006 1.164-.915 1.53-1.264 1.53-2.129 0-.831-.449-1.347-1.297-1.347-.981 0-1.364.665-1.447 1.68h-1.946c.083-1.663 1.014-3.193 3.442-3.21 2.212-.017 3.309 1.247 3.309 2.877 0 1.414-.599 2.179-2.312 3.409-1.214.865-1.813 1.547-2.012 2.162h4.573l-.248 1.664z"/></svg>