<svg xmlns="http://www.w3.org/2000/svg" viewBox="0 0 256 256" style="enable-background:new 0 0 256 256" xml:space="preserve"><style>.st2{fill:none;stroke:#6b1d1d;stroke-width:.5;stroke-miterlimit:10}.st3{fill:#3a312a}.st4{fill:#87796f}.st7{fill:#fce8cb}.st14{fill:#d7e057}</style><g id="Layer_1"><path class="st14" d="M47.786 26.22s3.408 12.659 13.222 13.246c0 0-13.1 4.525-13.321 14.202 0 0-2.579-13.572-12.925-14.059 0 0 12.05-1.825 13.024-13.389z"/><path class="st3" d="M47.686 55.167a1.5 1.5 0 0 1-1.472-1.217c-.024-.124-2.495-12.417-11.522-12.842a1.5 1.5 0 0 1-.155-2.982c.441-.069 10.894-1.817 11.754-12.033a1.5 1.5 0 0 1 2.942-.266c.032.116 3.259 11.626 11.864 12.141a1.501 1.501 0 0 1 .402 2.915c-.121.042-12.118 4.311-12.313 12.819a1.5 1.5 0 0 1-1.5 1.465zm-7.741-15.729c3.878 1.969 6.23 5.746 7.587 8.876 2.026-4.021 5.941-6.787 8.949-8.427-4.134-1.842-6.783-5.651-8.333-8.722-1.795 4.36-5.273 6.868-8.203 8.273z"/><path class="st14" d="M26.087 43.2s2.411 8.954 9.352 9.369c0 0-9.266 3.201-9.422 10.045 0 0-1.824-9.6-9.142-9.944 0 .001 8.524-1.29 9.212-9.47z"/><path class="st3" d="M26.016 64.115a1.5 1.5 0 0 1-1.472-1.22c-.016-.082-1.704-8.442-7.739-8.726a1.502 1.502 0 0 1-.155-2.982c.296-.047 7.364-1.243 7.942-8.114a1.5 1.5 0 0 1 2.942-.267c.021.079 2.227 7.92 7.994 8.265a1.5 1.5 0 0 1 .4 2.915c-.081.028-8.282 2.952-8.413 8.662a1.501 1.501 0 0 1-1.499 1.467zm-4.519-11.528c2.107 1.333 3.523 3.395 4.447 5.28 1.376-2.232 3.515-3.872 5.365-4.972-2.287-1.27-3.884-3.35-4.941-5.224-1.174 2.287-3.015 3.875-4.871 4.916z"/><path class="st14" d="M26.087 16.543s2.411 8.954 9.352 9.37c0 0-9.266 3.201-9.422 10.045 0 0-1.824-9.6-9.142-9.944 0 0 8.524-1.292 9.212-9.471z"/><path class="st3" d="M26.016 37.458a1.5 1.5 0 0 1-1.472-1.22c-.016-.082-1.704-8.442-7.739-8.726a1.5 1.5 0 0 1-.155-2.981c.296-.047 7.364-1.243 7.942-8.114a1.5 1.5 0 0 1 2.942-.266c.021.079 2.227 7.92 7.994 8.265a1.5 1.5 0 0 1 .4 2.915c-.081.028-8.282 2.952-8.413 8.662a1.501 1.501 0 0 1-1.499 1.465zM21.497 25.93c2.107 1.332 3.523 3.394 4.447 5.28 1.376-2.232 3.515-3.872 5.365-4.972-2.287-1.27-3.884-3.35-4.941-5.224-1.174 2.286-3.015 3.875-4.871 4.916z"/><path class="st7" d="M133.375 61.742c.018 0 .034.003.052.003V38.5h-47.11v65.37l-66.94 115.94c-4.96 8.6 1.25 19.36 11.18 19.36h158.64c9.93 0 16.14-10.76 11.17-19.36l-66.94-115.94V75.005c-.018 0-.034.003-.052.003V61.742z"/><path class="st3" d="M189.197 240.67H30.557c-5.204 0-9.866-2.692-12.471-7.202-2.606-4.511-2.609-9.898-.008-14.407l66.74-115.592V38.5a1.5 1.5 0 0 1 1.5-1.5h47.11a1.5 1.5 0 0 1 1.5 1.5v23.245c0 .405-.163.793-.454 1.075a1.476 1.476 0 0 1-1.189.419c-.829 0-1.455-.67-1.455-1.498 0-.182.035-.356.097-.517V40h-44.11v63.87c0 .263-.069.522-.201.75l-66.94 115.94c-2.059 3.57-2.056 7.834.008 11.407 2.062 3.571 5.754 5.703 9.874 5.703h158.64c4.121 0 7.812-2.132 9.873-5.705 2.062-3.572 2.061-7.835-.002-11.405l-66.94-115.94a1.497 1.497 0 0 1-.201-.75V75.005h1.448v-1.497c.397-.017.803.141 1.093.423.29.282.459.669.459 1.074v28.463l66.739 115.592c2.605 4.508 2.606 9.893.003 14.405-2.605 4.512-7.267 7.205-12.473 7.205z"/><path d="M200.367 219.81 143.317 121h-66.89l-57.05 98.81c-4.96 8.6 1.25 19.36 11.18 19.36h158.64c9.93 0 16.14-10.76 11.17-19.36z" style="fill:#8ac6dd"/><path class="st3" d="M189.197 240.67H30.557c-5.204 0-9.866-2.692-12.471-7.202-2.606-4.511-2.609-9.898-.008-14.407l57.05-98.811a1.5 1.5 0 0 1 1.299-.75h66.891a1.5 1.5 0 0 1 1.299.75l57.05 98.81v-.001c2.605 4.508 2.606 9.893.003 14.405-2.605 4.513-7.267 7.206-12.473 7.206zM77.293 122.5l-56.617 98.06c-2.059 3.57-2.056 7.834.008 11.407 2.062 3.571 5.754 5.703 9.874 5.703h158.64c4.121 0 7.812-2.132 9.873-5.705 2.062-3.572 2.061-7.835-.002-11.405l-56.617-98.06H77.293z"/><path class="st4" d="M135.441 16.5H84.308c-6.075 0-11 4.925-11 11s4.925 11 11 11h51.133c6.075 0 11-4.925 11-11s-4.925-11-11-11z"/><path class="st3" d="M135.441 40H84.308c-6.893 0-12.5-5.607-12.5-12.5S77.415 15 84.308 15h51.133c6.893 0 12.5 5.607 12.5 12.5s-5.607 12.5-12.5 12.5zM84.308 18c-5.238 0-9.5 4.262-9.5 9.5s4.262 9.5 9.5 9.5h51.133c5.238 0 9.5-4.262 9.5-9.5s-4.262-9.5-9.5-9.5H84.308z"/><path class="st7" d="M239.125 183.875c0 30.721-24.904 55.625-55.625 55.625s-55.625-24.904-55.625-55.625c0-23.269 14.288-43.186 34.572-51.488V95.634h42.096v36.753c20.285 8.302 34.582 28.219 34.582 51.488z"/><path class="st3" d="M183.5 241c-31.499 0-57.125-25.626-57.125-57.125 0-22.958 13.535-43.448 34.572-52.485V95.634a1.5 1.5 0 0 1 1.5-1.5h42.096a1.5 1.5 0 0 1 1.5 1.5v35.755c21.042 9.04 34.582 29.53 34.582 52.485 0 31.5-25.626 57.126-57.125 57.126zM163.947 97.134v35.253c0 .609-.368 1.158-.932 1.388-20.436 8.363-33.641 28.029-33.641 50.1 0 29.845 24.28 54.125 54.125 54.125s54.125-24.28 54.125-54.125c0-22.069-13.209-41.734-33.65-50.1a1.5 1.5 0 0 1-.932-1.388V97.134h-39.095z"/><path class="st14" d="M169.99 154.333h-33.623c-5.379 8.558-8.492 18.685-8.492 29.542 0 30.721 24.904 55.625 55.625 55.625s55.625-24.904 55.625-55.625c0-10.857-3.115-20.983-8.496-29.542H169.99z"/><path class="st3" d="M183.5 241c-31.499 0-57.125-25.626-57.125-57.125a56.934 56.934 0 0 1 8.722-30.34 1.499 1.499 0 0 1 1.27-.702h33.624a1.5 1.5 0 1 1 0 3h-32.787a53.944 53.944 0 0 0-7.828 28.042c0 29.845 24.28 54.125 54.125 54.125s54.125-24.28 54.125-54.125a53.937 53.937 0 0 0-7.832-28.042H182.76a1.5 1.5 0 1 1 0-3h47.869a1.5 1.5 0 0 1 1.27.702 56.914 56.914 0 0 1 8.726 30.34c0 31.499-25.626 57.125-57.125 57.125z"/><path class="st4" d="M206.346 75.976h-45.691c-5.429 0-9.829 4.401-9.829 9.829 0 5.429 4.401 9.829 9.829 9.829h45.691c5.429 0 9.829-4.401 9.829-9.829 0-5.428-4.401-9.829-9.829-9.829z"/><path class="st3" d="M206.346 97.134h-45.691c-6.247 0-11.33-5.082-11.33-11.329 0-6.247 5.083-11.329 11.33-11.329h45.691c6.247 0 11.33 5.082 11.33 11.329-.001 6.247-5.083 11.329-11.33 11.329zm-45.692-19.658c-4.593 0-8.33 3.736-8.33 8.329s3.737 8.329 8.33 8.329h45.691c4.593 0 8.33-3.736 8.33-8.329s-3.737-8.329-8.33-8.329h-45.691zM100.414 51.059H86.875a1.5 1.5 0 1 1 0-3h13.539a1.5 1.5 0 1 1 0 3zM110.875 66.126h-24a1.5 1.5 0 1 1 0-3h24a1.5 1.5 0 1 1 0 3zM100.414 81.194H86.875a1.5 1.5 0 1 1 0-3h13.539a1.5 1.5 0 1 1 0 3zM110.875 96.261h-24a1.5 1.5 0 1 1 0-3h24a1.5 1.5 0 1 1 0 3zM176.414 108.059h-13.539a1.5 1.5 0 1 1 0-3h13.539a1.5 1.5 0 1 1 0 3zM186.875 123.126h-24a1.5 1.5 0 1 1 0-3h24a1.5 1.5 0 1 1 0 3z"/><path d="M227.865 152.83h-15c-5.82-8.32-14.01-15.01-23.89-19.05-.56-.24-.93-.78-.93-1.39v-9.84a1.46 1.46 0 0 0 0-1.85V97.13h15v35.26c0 .61.37 1.15.93 1.39 9.88 4.04 18.07 10.73 23.89 19.05z" style="fill:#decaad"/><path d="M237.625 183.88c0 29.84-24.28 54.12-54.13 54.12-2.55 0-5.05-.18-7.5-.52 26.32-3.66 46.63-26.31 46.63-53.6 0-9.93-2.71-19.61-7.83-28.05h15a54.02 54.02 0 0 1 7.83 28.05z" style="fill:#b9c239"/><path d="M214.675 85.81c0 4.59-3.74 8.32-8.33 8.32h-15c4.59 0 8.33-3.73 8.33-8.32 0-4.6-3.74-8.33-8.33-8.33h15c4.59 0 8.33 3.73 8.33 8.33z" style="fill:#695b51"/></g></svg>